<?xml version="1.0" encoding="utf-8" standalone="no"?>
<!DOCTYPE svg PUBLIC "-//W3C//DTD SVG 1.1//EN"
  "http://www.w3.org/Graphics/SVG/1.1/DTD/svg11.dtd">
<svg xmlns:xlink="http://www.w3.org/1999/xlink" width="864pt" height="432pt" viewBox="0 0 864 432" xmlns="http://www.w3.org/2000/svg" version="1.1">
 <metadata>
  <rdf:RDF xmlns:dc="http://purl.org/dc/elements/1.1/" xmlns:cc="http://creativecommons.org/ns#" xmlns:rdf="http://www.w3.org/1999/02/22-rdf-syntax-ns#">
   <cc:Work>
    <dc:type rdf:resource="http://purl.org/dc/dcmitype/StillImage"/>
    <dc:date>2025-03-09T00:10:11.992562</dc:date>
    <dc:format>image/svg+xml</dc:format>
    <dc:creator>
     <cc:Agent>
      <dc:title>Matplotlib v3.10.0, https://matplotlib.org/</dc:title>
     </cc:Agent>
    </dc:creator>
   </cc:Work>
  </rdf:RDF>
 </metadata>
 <defs>
  <style type="text/css">*{stroke-linejoin: round; stroke-linecap: butt}</style>
 </defs>
 <g id="figure_1">
  <g id="patch_1">
   <path d="M 0 432 
L 864 432 
L 864 0 
L 0 0 
z
" style="fill: #ffffff"/>
  </g>
  <g id="axes_1">
   <g id="patch_2">
    <path d="M 55.91 362.655662 
L 851.04 362.655662 
L 851.04 12.96 
L 55.91 12.96 
z
" style="fill: #ffffff"/>
   </g>
   <g id="patch_3">
    <path d="M 92.052273 362.655662 
L 97.789141 362.655662 
L 97.789141 159.506394 
L 92.052273 159.506394 
z
" clip-path="url(#p0ac1cb9052)" style="fill: #b7d4ea"/>
   </g>
   <g id="patch_4">
    <path d="M 130.298064 362.655662 
L 136.034933 362.655662 
L 136.034933 58.475601 
L 130.298064 58.475601 
z
" clip-path="url(#p0ac1cb9052)" style="fill: #b7d4ea"/>
   </g>
   <g id="patch_5">
    <path d="M 168.543855 362.655662 
L 174.280724 362.655662 
L 174.280724 101.643074 
L 168.543855 101.643074 
z
" clip-path="url(#p0ac1cb9052)" style="fill: #b7d4ea"/>
   </g>
   <g id="patch_6">
    <path d="M 206.789646 362.655662 
L 212.526515 362.655662 
L 212.526515 36.987767 
L 206.789646 36.987767 
z
" clip-path="url(#p0ac1cb9052)" style="fill: #b7d4ea"/>
   </g>
   <g id="patch_7">
    <path d="M 245.035438 362.655662 
L 250.772306 362.655662 
L 250.772306 203.043221 
L 245.035438 203.043221 
z
" clip-path="url(#p0ac1cb9052)" style="fill: #b7d4ea"/>
   </g>
   <g id="patch_8">
    <path d="M 283.281229 362.655662 
L 289.018098 362.655662 
L 289.018098 178.021803 
L 283.281229 178.021803 
z
" clip-path="url(#p0ac1cb9052)" style="fill: #b7d4ea"/>
   </g>
   <g id="patch_9">
    <path d="M 321.52702 362.655662 
L 327.263889 362.655662 
L 327.263889 185.563968 
L 321.52702 185.563968 
z
" clip-path="url(#p0ac1cb9052)" style="fill: #b7d4ea"/>
   </g>
   <g id="patch_10">
    <path d="M 359.772811 362.655662 
L 365.50968 362.655662 
L 365.50968 202.431152 
L 359.772811 202.431152 
z
" clip-path="url(#p0ac1cb9052)" style="fill: #b7d4ea"/>
   </g>
   <g id="patch_11">
    <path d="M 398.018603 362.655662 
L 403.755471 362.655662 
L 403.755471 211.122009 
L 398.018603 211.122009 
z
" clip-path="url(#p0ac1cb9052)" style="fill: #b7d4ea"/>
   </g>
   <g id="patch_12">
    <path d="M 436.264394 362.655662 
L 442.001263 362.655662 
L 442.001263 66.875946 
L 436.264394 66.875946 
z
" clip-path="url(#p0ac1cb9052)" style="fill: #b7d4ea"/>
   </g>
   <g id="patch_13">
    <path d="M 474.510185 362.655662 
L 480.247054 362.655662 
L 480.247054 118.123246 
L 474.510185 118.123246 
z
" clip-path="url(#p0ac1cb9052)" style="fill: #b7d4ea"/>
   </g>
   <g id="patch_14">
    <path d="M 512.755976 362.655662 
L 518.492845 362.655662 
L 518.492845 110.433325 
L 512.755976 110.433325 
z
" clip-path="url(#p0ac1cb9052)" style="fill: #b7d4ea"/>
   </g>
   <g id="patch_15">
    <path d="M 551.001768 362.655662 
L 556.738636 362.655662 
L 556.738636 230.622032 
L 551.001768 230.622032 
z
" clip-path="url(#p0ac1cb9052)" style="fill: #b7d4ea"/>
   </g>
   <g id="patch_16">
    <path d="M 589.247559 362.655662 
L 594.984428 362.655662 
L 594.984428 298.965259 
L 589.247559 298.965259 
z
" clip-path="url(#p0ac1cb9052)" style="fill: #b7d4ea"/>
   </g>
   <g id="patch_17">
    <path d="M 627.49335 362.655662 
L 633.230219 362.655662 
L 633.230219 85.628005 
L 627.49335 85.628005 
z
" clip-path="url(#p0ac1cb9052)" style="fill: #b7d4ea"/>
   </g>
   <g id="patch_18">
    <path d="M 665.739141 362.655662 
L 671.47601 362.655662 
L 671.47601 108.261588 
L 665.739141 108.261588 
z
" clip-path="url(#p0ac1cb9052)" style="fill: #b7d4ea"/>
   </g>
   <g id="patch_19">
    <path d="M 703.984933 362.655662 
L 709.721801 362.655662 
L 709.721801 61.982738 
L 703.984933 61.982738 
z
" clip-path="url(#p0ac1cb9052)" style="fill: #b7d4ea"/>
   </g>
   <g id="patch_20">
    <path d="M 742.230724 362.655662 
L 747.967593 362.655662 
L 747.967593 113.044653 
L 742.230724 113.044653 
z
" clip-path="url(#p0ac1cb9052)" style="fill: #b7d4ea"/>
   </g>
   <g id="patch_21">
    <path d="M 780.476515 362.655662 
L 786.213384 362.655662 
L 786.213384 108.618224 
L 780.476515 108.618224 
z
" clip-path="url(#p0ac1cb9052)" style="fill: #b7d4ea"/>
   </g>
   <g id="patch_22">
    <path d="M 97.789141 362.655662 
L 103.52601 362.655662 
L 103.52601 157.453485 
L 97.789141 157.453485 
z
" clip-path="url(#p0ac1cb9052)" style="fill: #a9a9a9"/>
   </g>
   <g id="patch_23">
    <path d="M 136.034933 362.655662 
L 141.771801 362.655662 
L 141.771801 49.967477 
L 136.034933 49.967477 
z
" clip-path="url(#p0ac1cb9052)" style="fill: #a9a9a9"/>
   </g>
   <g id="patch_24">
    <path d="M 174.280724 362.655662 
L 180.017593 362.655662 
L 180.017593 90.303332 
L 174.280724 90.303332 
z
" clip-path="url(#p0ac1cb9052)" style="fill: #a9a9a9"/>
   </g>
   <g id="patch_25">
    <path d="M 212.526515 362.655662 
L 218.263384 362.655662 
L 218.263384 29.612174 
L 212.526515 29.612174 
z
" clip-path="url(#p0ac1cb9052)" style="fill: #a9a9a9"/>
   </g>
   <g id="patch_26">
    <path d="M 250.772306 362.655662 
L 256.509175 362.655662 
L 256.509175 199.442865 
L 250.772306 199.442865 
z
" clip-path="url(#p0ac1cb9052)" style="fill: #a9a9a9"/>
   </g>
   <g id="patch_27">
    <path d="M 289.018098 362.655662 
L 294.754966 362.655662 
L 294.754966 177.04809 
L 289.018098 177.04809 
z
" clip-path="url(#p0ac1cb9052)" style="fill: #a9a9a9"/>
   </g>
   <g id="patch_28">
    <path d="M 327.263889 362.655662 
L 333.000758 362.655662 
L 333.000758 184.504419 
L 327.263889 184.504419 
z
" clip-path="url(#p0ac1cb9052)" style="fill: #a9a9a9"/>
   </g>
   <g id="patch_29">
    <path d="M 365.50968 362.655662 
L 371.246549 362.655662 
L 371.246549 199.855562 
L 365.50968 199.855562 
z
" clip-path="url(#p0ac1cb9052)" style="fill: #a9a9a9"/>
   </g>
   <g id="patch_30">
    <path d="M 403.755471 362.655662 
L 409.49234 362.655662 
L 409.49234 208.151757 
L 403.755471 208.151757 
z
" clip-path="url(#p0ac1cb9052)" style="fill: #a9a9a9"/>
   </g>
   <g id="patch_31">
    <path d="M 442.001263 362.655662 
L 447.738131 362.655662 
L 447.738131 63.948442 
L 442.001263 63.948442 
z
" clip-path="url(#p0ac1cb9052)" style="fill: #a9a9a9"/>
   </g>
   <g id="patch_32">
    <path d="M 480.247054 362.655662 
L 485.983923 362.655662 
L 485.983923 113.874461 
L 480.247054 113.874461 
z
" clip-path="url(#p0ac1cb9052)" style="fill: #a9a9a9"/>
   </g>
   <g id="patch_33">
    <path d="M 518.492845 362.655662 
L 524.229714 362.655662 
L 524.229714 106.628674 
L 518.492845 106.628674 
z
" clip-path="url(#p0ac1cb9052)" style="fill: #a9a9a9"/>
   </g>
   <g id="patch_34">
    <path d="M 556.738636 362.655662 
L 562.475505 362.655662 
L 562.475505 217.927735 
L 556.738636 217.927735 
z
" clip-path="url(#p0ac1cb9052)" style="fill: #a9a9a9"/>
   </g>
   <g id="patch_35">
    <path d="M 594.984428 362.655662 
L 600.721296 362.655662 
L 600.721296 293.485907 
L 594.984428 293.485907 
z
" clip-path="url(#p0ac1cb9052)" style="fill: #a9a9a9"/>
   </g>
   <g id="patch_36">
    <path d="M 633.230219 362.655662 
L 638.967088 362.655662 
L 638.967088 78.6444 
L 633.230219 78.6444 
z
" clip-path="url(#p0ac1cb9052)" style="fill: #a9a9a9"/>
   </g>
   <g id="patch_37">
    <path d="M 671.47601 362.655662 
L 677.212879 362.655662 
L 677.212879 101.430809 
L 671.47601 101.430809 
z
" clip-path="url(#p0ac1cb9052)" style="fill: #a9a9a9"/>
   </g>
   <g id="patch_38">
    <path d="M 709.721801 362.655662 
L 715.45867 362.655662 
L 715.45867 42.43238 
L 709.721801 42.43238 
z
" clip-path="url(#p0ac1cb9052)" style="fill: #a9a9a9"/>
   </g>
   <g id="patch_39">
    <path d="M 747.967593 362.655662 
L 753.704461 362.655662 
L 753.704461 109.028481 
L 747.967593 109.028481 
z
" clip-path="url(#p0ac1cb9052)" style="fill: #a9a9a9"/>
   </g>
   <g id="patch_40">
    <path d="M 786.213384 362.655662 
L 791.950253 362.655662 
L 791.950253 95.76692 
L 786.213384 95.76692 
z
" clip-path="url(#p0ac1cb9052)" style="fill: #a9a9a9"/>
   </g>
   <g id="patch_41">
    <path d="M 103.52601 362.655662 
L 109.262879 362.655662 
L 109.262879 173.588015 
L 103.52601 173.588015 
z
" clip-path="url(#p0ac1cb9052)" style="fill: #519ccc"/>
   </g>
   <g id="patch_42">
    <path d="M 141.771801 362.655662 
L 147.50867 362.655662 
L 147.50867 75.541612 
L 141.771801 75.541612 
z
" clip-path="url(#p0ac1cb9052)" style="fill: #519ccc"/>
   </g>
   <g id="patch_43">
    <path d="M 180.017593 362.655662 
L 185.754461 362.655662 
L 185.754461 113.404343 
L 180.017593 113.404343 
z
" clip-path="url(#p0ac1cb9052)" style="fill: #519ccc"/>
   </g>
   <g id="patch_44">
    <path d="M 218.263384 362.655662 
L 224.000253 362.655662 
L 224.000253 52.252706 
L 218.263384 52.252706 
z
" clip-path="url(#p0ac1cb9052)" style="fill: #519ccc"/>
   </g>
   <g id="patch_45">
    <path d="M 256.509175 362.655662 
L 262.246044 362.655662 
L 262.246044 210.163383 
L 256.509175 210.163383 
z
" clip-path="url(#p0ac1cb9052)" style="fill: #519ccc"/>
   </g>
   <g id="patch_46">
    <path d="M 294.754966 362.655662 
L 300.491835 362.655662 
L 300.491835 199.515582 
L 294.754966 199.515582 
z
" clip-path="url(#p0ac1cb9052)" style="fill: #519ccc"/>
   </g>
   <g id="patch_47">
    <path d="M 333.000758 362.655662 
L 338.737626 362.655662 
L 338.737626 192.328807 
L 333.000758 192.328807 
z
" clip-path="url(#p0ac1cb9052)" style="fill: #519ccc"/>
   </g>
   <g id="patch_48">
    <path d="M 371.246549 362.655662 
L 376.983418 362.655662 
L 376.983418 209.877057 
L 371.246549 209.877057 
z
" clip-path="url(#p0ac1cb9052)" style="fill: #519ccc"/>
   </g>
   <g id="patch_49">
    <path d="M 409.49234 362.655662 
L 415.229209 362.655662 
L 415.229209 217.100629 
L 409.49234 217.100629 
z
" clip-path="url(#p0ac1cb9052)" style="fill: #519ccc"/>
   </g>
   <g id="patch_50">
    <path d="M 447.738131 362.655662 
L 453.475 362.655662 
L 453.475 90.503532 
L 447.738131 90.503532 
z
" clip-path="url(#p0ac1cb9052)" style="fill: #519ccc"/>
   </g>
   <g id="patch_51">
    <path d="M 485.983923 362.655662 
L 491.720791 362.655662 
L 491.720791 126.199417 
L 485.983923 126.199417 
z
" clip-path="url(#p0ac1cb9052)" style="fill: #519ccc"/>
   </g>
   <g id="patch_52">
    <path d="M 524.229714 362.655662 
L 529.966582 362.655662 
L 529.966582 119.317848 
L 524.229714 119.317848 
z
" clip-path="url(#p0ac1cb9052)" style="fill: #519ccc"/>
   </g>
   <g id="patch_53">
    <path d="M 562.475505 362.655662 
L 568.212374 362.655662 
L 568.212374 252.253191 
L 562.475505 252.253191 
z
" clip-path="url(#p0ac1cb9052)" style="fill: #519ccc"/>
   </g>
   <g id="patch_54">
    <path d="M 600.721296 362.655662 
L 606.458165 362.655662 
L 606.458165 312.666784 
L 600.721296 312.666784 
z
" clip-path="url(#p0ac1cb9052)" style="fill: #519ccc"/>
   </g>
   <g id="patch_55">
    <path d="M 638.967088 362.655662 
L 644.703956 362.655662 
L 644.703956 113.256647 
L 638.967088 113.256647 
z
" clip-path="url(#p0ac1cb9052)" style="fill: #519ccc"/>
   </g>
   <g id="patch_56">
    <path d="M 677.212879 362.655662 
L 682.949747 362.655662 
L 682.949747 122.602147 
L 677.212879 122.602147 
z
" clip-path="url(#p0ac1cb9052)" style="fill: #519ccc"/>
   </g>
   <g id="patch_57">
    <path d="M 715.45867 362.655662 
L 721.195539 362.655662 
L 721.195539 69.548305 
L 715.45867 69.548305 
z
" clip-path="url(#p0ac1cb9052)" style="fill: #519ccc"/>
   </g>
   <g id="patch_58">
    <path d="M 753.704461 362.655662 
L 759.44133 362.655662 
L 759.44133 130.498625 
L 753.704461 130.498625 
z
" clip-path="url(#p0ac1cb9052)" style="fill: #519ccc"/>
   </g>
   <g id="patch_59">
    <path d="M 791.950253 362.655662 
L 797.687121 362.655662 
L 797.687121 126.058016 
L 791.950253 126.058016 
z
" clip-path="url(#p0ac1cb9052)" style="fill: #519ccc"/>
   </g>
   <g id="patch_60">
    <path d="M 109.262879 362.655662 
L 114.999747 362.655662 
L 114.999747 214.780297 
L 109.262879 214.780297 
z
" clip-path="url(#p0ac1cb9052)" style="fill: #5a5a5a"/>
   </g>
   <g id="patch_61">
    <path d="M 147.50867 362.655662 
L 153.245539 362.655662 
L 153.245539 111.292962 
L 147.50867 111.292962 
z
" clip-path="url(#p0ac1cb9052)" style="fill: #5a5a5a"/>
   </g>
   <g id="patch_62">
    <path d="M 185.754461 362.655662 
L 191.49133 362.655662 
L 191.49133 161.225047 
L 185.754461 161.225047 
z
" clip-path="url(#p0ac1cb9052)" style="fill: #5a5a5a"/>
   </g>
   <g id="patch_63">
    <path d="M 224.000253 362.655662 
L 229.737121 362.655662 
L 229.737121 90.782105 
L 224.000253 90.782105 
z
" clip-path="url(#p0ac1cb9052)" style="fill: #5a5a5a"/>
   </g>
   <g id="patch_64">
    <path d="M 262.246044 362.655662 
L 267.982912 362.655662 
L 267.982912 142.828039 
L 262.246044 142.828039 
z
" clip-path="url(#p0ac1cb9052)" style="fill: #5a5a5a"/>
   </g>
   <g id="patch_65">
    <path d="M 300.491835 362.655662 
L 306.228704 362.655662 
L 306.228704 140.85895 
L 300.491835 140.85895 
z
" clip-path="url(#p0ac1cb9052)" style="fill: #5a5a5a"/>
   </g>
   <g id="patch_66">
    <path d="M 338.737626 362.655662 
L 344.474495 362.655662 
L 344.474495 200.47303 
L 338.737626 200.47303 
z
" clip-path="url(#p0ac1cb9052)" style="fill: #5a5a5a"/>
   </g>
   <g id="patch_67">
    <path d="M 376.983418 362.655662 
L 382.720286 362.655662 
L 382.720286 204.88612 
L 376.983418 204.88612 
z
" clip-path="url(#p0ac1cb9052)" style="fill: #5a5a5a"/>
   </g>
   <g id="patch_68">
    <path d="M 415.229209 362.655662 
L 420.966077 362.655662 
L 420.966077 200.194479 
L 415.229209 200.194479 
z
" clip-path="url(#p0ac1cb9052)" style="fill: #5a5a5a"/>
   </g>
   <g id="patch_69">
    <path d="M 453.475 362.655662 
L 459.211869 362.655662 
L 459.211869 113.669216 
L 453.475 113.669216 
z
" clip-path="url(#p0ac1cb9052)" style="fill: #5a5a5a"/>
   </g>
   <g id="patch_70">
    <path d="M 491.720791 362.655662 
L 497.45766 362.655662 
L 497.45766 143.518156 
L 491.720791 143.518156 
z
" clip-path="url(#p0ac1cb9052)" style="fill: #5a5a5a"/>
   </g>
   <g id="patch_71">
    <path d="M 529.966582 362.655662 
L 535.703451 362.655662 
L 535.703451 146.785289 
L 529.966582 146.785289 
z
" clip-path="url(#p0ac1cb9052)" style="fill: #5a5a5a"/>
   </g>
   <g id="patch_72">
    <path d="M 568.212374 362.655662 
L 573.949242 362.655662 
L 573.949242 135.842846 
L 568.212374 135.842846 
z
" clip-path="url(#p0ac1cb9052)" style="fill: #5a5a5a"/>
   </g>
   <g id="patch_73">
    <path d="M 606.458165 362.655662 
L 612.195034 362.655662 
L 612.195034 248.143258 
L 606.458165 248.143258 
z
" clip-path="url(#p0ac1cb9052)" style="fill: #5a5a5a"/>
   </g>
   <g id="patch_74">
    <path d="M 644.703956 362.655662 
L 650.440825 362.655662 
L 650.440825 90.336018 
L 644.703956 90.336018 
z
" clip-path="url(#p0ac1cb9052)" style="fill: #5a5a5a"/>
   </g>
   <g id="patch_75">
    <path d="M 682.949747 362.655662 
L 688.686616 362.655662 
L 688.686616 153.619481 
L 682.949747 153.619481 
z
" clip-path="url(#p0ac1cb9052)" style="fill: #5a5a5a"/>
   </g>
   <g id="patch_76">
    <path d="M 721.195539 362.655662 
L 726.932407 362.655662 
L 726.932407 118.719444 
L 721.195539 118.719444 
z
" clip-path="url(#p0ac1cb9052)" style="fill: #5a5a5a"/>
   </g>
   <g id="patch_77">
    <path d="M 759.44133 362.655662 
L 765.178199 362.655662 
L 765.178199 163.225592 
L 759.44133 163.225592 
z
" clip-path="url(#p0ac1cb9052)" style="fill: #5a5a5a"/>
   </g>
   <g id="patch_78">
    <path d="M 797.687121 362.655662 
L 803.42399 362.655662 
L 803.42399 117.955737 
L 797.687121 117.955737 
z
" clip-path="url(#p0ac1cb9052)" style="fill: #5a5a5a"/>
   </g>
   <g id="patch_79">
    <path d="M 114.999747 362.655662 
L 120.736616 362.655662 
L 120.736616 200.827535 
L 114.999747 200.827535 
z
" clip-path="url(#p0ac1cb9052)" style="fill: #0a549e"/>
   </g>
   <g id="patch_80">
    <path d="M 153.245539 362.655662 
L 158.982407 362.655662 
L 158.982407 125.432808 
L 153.245539 125.432808 
z
" clip-path="url(#p0ac1cb9052)" style="fill: #0a549e"/>
   </g>
   <g id="patch_81">
    <path d="M 191.49133 362.655662 
L 197.228199 362.655662 
L 197.228199 181.659247 
L 191.49133 181.659247 
z
" clip-path="url(#p0ac1cb9052)" style="fill: #0a549e"/>
   </g>
   <g id="patch_82">
    <path d="M 229.737121 362.655662 
L 235.47399 362.655662 
L 235.47399 121.099938 
L 229.737121 121.099938 
z
" clip-path="url(#p0ac1cb9052)" style="fill: #0a549e"/>
   </g>
   <g id="patch_83">
    <path d="M 267.982912 362.655662 
L 273.719781 362.655662 
L 273.719781 183.674259 
L 267.982912 183.674259 
z
" clip-path="url(#p0ac1cb9052)" style="fill: #0a549e"/>
   </g>
   <g id="patch_84">
    <path d="M 306.228704 362.655662 
L 311.965572 362.655662 
L 311.965572 184.590023 
L 306.228704 184.590023 
z
" clip-path="url(#p0ac1cb9052)" style="fill: #0a549e"/>
   </g>
   <g id="patch_85">
    <path d="M 344.474495 362.655662 
L 350.211364 362.655662 
L 350.211364 225.63171 
L 344.474495 225.63171 
z
" clip-path="url(#p0ac1cb9052)" style="fill: #0a549e"/>
   </g>
   <g id="patch_86">
    <path d="M 382.720286 362.655662 
L 388.457155 362.655662 
L 388.457155 240.076286 
L 382.720286 240.076286 
z
" clip-path="url(#p0ac1cb9052)" style="fill: #0a549e"/>
   </g>
   <g id="patch_87">
    <path d="M 420.966077 362.655662 
L 426.702946 362.655662 
L 426.702946 240.554706 
L 420.966077 240.554706 
z
" clip-path="url(#p0ac1cb9052)" style="fill: #0a549e"/>
   </g>
   <g id="patch_88">
    <path d="M 459.211869 362.655662 
L 464.948737 362.655662 
L 464.948737 132.029137 
L 459.211869 132.029137 
z
" clip-path="url(#p0ac1cb9052)" style="fill: #0a549e"/>
   </g>
   <g id="patch_89">
    <path d="M 497.45766 362.655662 
L 503.194529 362.655662 
L 503.194529 152.956989 
L 497.45766 152.956989 
z
" clip-path="url(#p0ac1cb9052)" style="fill: #0a549e"/>
   </g>
   <g id="patch_90">
    <path d="M 535.703451 362.655662 
L 541.44032 362.655662 
L 541.44032 166.619063 
L 535.703451 166.619063 
z
" clip-path="url(#p0ac1cb9052)" style="fill: #0a549e"/>
   </g>
   <g id="patch_91">
    <path d="M 573.949242 362.655662 
L 579.686111 362.655662 
L 579.686111 243.469268 
L 573.949242 243.469268 
z
" clip-path="url(#p0ac1cb9052)" style="fill: #0a549e"/>
   </g>
   <g id="patch_92">
    <path d="M 612.195034 362.655662 
L 617.931902 362.655662 
L 617.931902 281.096625 
L 612.195034 281.096625 
z
" clip-path="url(#p0ac1cb9052)" style="fill: #0a549e"/>
   </g>
   <g id="patch_93">
    <path d="M 650.440825 362.655662 
L 656.177694 362.655662 
L 656.177694 148.492486 
L 650.440825 148.492486 
z
" clip-path="url(#p0ac1cb9052)" style="fill: #0a549e"/>
   </g>
   <g id="patch_94">
    <path d="M 688.686616 362.655662 
L 694.423485 362.655662 
L 694.423485 161.63648 
L 688.686616 161.63648 
z
" clip-path="url(#p0ac1cb9052)" style="fill: #0a549e"/>
   </g>
   <g id="patch_95">
    <path d="M 726.932407 362.655662 
L 732.669276 362.655662 
L 732.669276 144.085009 
L 726.932407 144.085009 
z
" clip-path="url(#p0ac1cb9052)" style="fill: #0a549e"/>
   </g>
   <g id="patch_96">
    <path d="M 765.178199 362.655662 
L 770.915067 362.655662 
L 770.915067 176.538968 
L 765.178199 176.538968 
z
" clip-path="url(#p0ac1cb9052)" style="fill: #0a549e"/>
   </g>
   <g id="patch_97">
    <path d="M 803.42399 362.655662 
L 809.160859 362.655662 
L 809.160859 211.153705 
L 803.42399 211.153705 
z
" clip-path="url(#p0ac1cb9052)" style="fill: #0a549e"/>
   </g>
   <g id="patch_98">
    <path d="M 120.736616 362.655662 
L 126.473485 362.655662 
L 126.473485 169.864791 
L 120.736616 169.864791 
z
" clip-path="url(#p0ac1cb9052)"/>
   </g>
   <g id="patch_99">
    <path d="M 158.982407 362.655662 
L 164.719276 362.655662 
L 164.719276 73.936638 
L 158.982407 73.936638 
z
" clip-path="url(#p0ac1cb9052)"/>
   </g>
   <g id="patch_100">
    <path d="M 197.228199 362.655662 
L 202.965067 362.655662 
L 202.965067 104.439675 
L 197.228199 104.439675 
z
" clip-path="url(#p0ac1cb9052)"/>
   </g>
   <g id="patch_101">
    <path d="M 235.47399 362.655662 
L 241.210859 362.655662 
L 241.210859 41.557203 
L 235.47399 41.557203 
z
" clip-path="url(#p0ac1cb9052)"/>
   </g>
   <g id="patch_102">
    <path d="M 273.719781 362.655662 
L 279.45665 362.655662 
L 279.45665 211.281369 
L 273.719781 211.281369 
z
" clip-path="url(#p0ac1cb9052)"/>
   </g>
   <g id="patch_103">
    <path d="M 311.965572 362.655662 
L 317.702441 362.655662 
L 317.702441 192.540722 
L 311.965572 192.540722 
z
" clip-path="url(#p0ac1cb9052)"/>
   </g>
   <g id="patch_104">
    <path d="M 350.211364 362.655662 
L 355.948232 362.655662 
L 355.948232 193.163285 
L 350.211364 193.163285 
z
" clip-path="url(#p0ac1cb9052)"/>
   </g>
   <g id="patch_105">
    <path d="M 388.457155 362.655662 
L 394.194024 362.655662 
L 394.194024 204.206919 
L 388.457155 204.206919 
z
" clip-path="url(#p0ac1cb9052)"/>
   </g>
   <g id="patch_106">
    <path d="M 426.702946 362.655662 
L 432.439815 362.655662 
L 432.439815 208.666559 
L 426.702946 208.666559 
z
" clip-path="url(#p0ac1cb9052)"/>
   </g>
   <g id="patch_107">
    <path d="M 464.948737 362.655662 
L 470.685606 362.655662 
L 470.685606 82.39192 
L 464.948737 82.39192 
z
" clip-path="url(#p0ac1cb9052)"/>
   </g>
   <g id="patch_108">
    <path d="M 503.194529 362.655662 
L 508.931397 362.655662 
L 508.931397 118.570679 
L 503.194529 118.570679 
z
" clip-path="url(#p0ac1cb9052)"/>
   </g>
   <g id="patch_109">
    <path d="M 541.44032 362.655662 
L 547.177189 362.655662 
L 547.177189 110.960238 
L 541.44032 110.960238 
z
" clip-path="url(#p0ac1cb9052)"/>
   </g>
   <g id="patch_110">
    <path d="M 579.686111 362.655662 
L 585.42298 362.655662 
L 585.42298 218.362238 
L 579.686111 218.362238 
z
" clip-path="url(#p0ac1cb9052)"/>
   </g>
   <g id="patch_111">
    <path d="M 617.931902 362.655662 
L 623.668771 362.655662 
L 623.668771 300.675595 
L 617.931902 300.675595 
z
" clip-path="url(#p0ac1cb9052)"/>
   </g>
   <g id="patch_112">
    <path d="M 656.177694 362.655662 
L 661.914562 362.655662 
L 661.914562 88.568579 
L 656.177694 88.568579 
z
" clip-path="url(#p0ac1cb9052)"/>
   </g>
   <g id="patch_113">
    <path d="M 694.423485 362.655662 
L 700.160354 362.655662 
L 700.160354 99.553054 
L 694.423485 99.553054 
z
" clip-path="url(#p0ac1cb9052)"/>
   </g>
   <g id="patch_114">
    <path d="M 732.669276 362.655662 
L 738.406145 362.655662 
L 738.406145 62.46318 
L 732.669276 62.46318 
z
" clip-path="url(#p0ac1cb9052)"/>
   </g>
   <g id="patch_115">
    <path d="M 770.915067 362.655662 
L 776.651936 362.655662 
L 776.651936 113.559173 
L 770.915067 113.559173 
z
" clip-path="url(#p0ac1cb9052)"/>
   </g>
   <g id="patch_116">
    <path d="M 809.160859 362.655662 
L 814.897727 362.655662 
L 814.897727 122.463246 
L 809.160859 122.463246 
z
" clip-path="url(#p0ac1cb9052)"/>
   </g>
   <g id="matplotlib.axis_1">
    <g id="xtick_1">
     <g id="line2d_1">
      <defs>
       <path id="ma843bd8731" d="M 0 0 
L 0 3.5 
" style="stroke: #000000; stroke-width: 0.8"/>
      </defs>
      <g>
       <use xlink:href="#ma843bd8731" x="112.131313" y="362.655662" style="stroke: #000000; stroke-width: 0.8"/>
      </g>
     </g>
     <g id="text_1">
      <!-- Round 00 -->
      <g transform="translate(70.02443 416.44536) rotate(-45) scale(0.12 -0.12)">
       <defs>
        <path id="DejaVuSans-52" d="M 2841 2188 
Q 3044 2119 3236 1894 
Q 3428 1669 3622 1275 
L 4263 0 
L 3584 0 
L 2988 1197 
Q 2756 1666 2539 1819 
Q 2322 1972 1947 1972 
L 1259 1972 
L 1259 0 
L 628 0 
L 628 4666 
L 2053 4666 
Q 2853 4666 3247 4331 
Q 3641 3997 3641 3322 
Q 3641 2881 3436 2590 
Q 3231 2300 2841 2188 
z
M 1259 4147 
L 1259 2491 
L 2053 2491 
Q 2509 2491 2742 2702 
Q 2975 2913 2975 3322 
Q 2975 3731 2742 3939 
Q 2509 4147 2053 4147 
L 1259 4147 
z
" transform="scale(0.015625)"/>
        <path id="DejaVuSans-6f" d="M 1959 3097 
Q 1497 3097 1228 2736 
Q 959 2375 959 1747 
Q 959 1119 1226 758 
Q 1494 397 1959 397 
Q 2419 397 2687 759 
Q 2956 1122 2956 1747 
Q 2956 2369 2687 2733 
Q 2419 3097 1959 3097 
z
M 1959 3584 
Q 2709 3584 3137 3096 
Q 3566 2609 3566 1747 
Q 3566 888 3137 398 
Q 2709 -91 1959 -91 
Q 1206 -91 779 398 
Q 353 888 353 1747 
Q 353 2609 779 3096 
Q 1206 3584 1959 3584 
z
" transform="scale(0.015625)"/>
        <path id="DejaVuSans-75" d="M 544 1381 
L 544 3500 
L 1119 3500 
L 1119 1403 
Q 1119 906 1312 657 
Q 1506 409 1894 409 
Q 2359 409 2629 706 
Q 2900 1003 2900 1516 
L 2900 3500 
L 3475 3500 
L 3475 0 
L 2900 0 
L 2900 538 
Q 2691 219 2414 64 
Q 2138 -91 1772 -91 
Q 1169 -91 856 284 
Q 544 659 544 1381 
z
M 1991 3584 
L 1991 3584 
z
" transform="scale(0.015625)"/>
        <path id="DejaVuSans-6e" d="M 3513 2113 
L 3513 0 
L 2938 0 
L 2938 2094 
Q 2938 2591 2744 2837 
Q 2550 3084 2163 3084 
Q 1697 3084 1428 2787 
Q 1159 2491 1159 1978 
L 1159 0 
L 581 0 
L 581 3500 
L 1159 3500 
L 1159 2956 
Q 1366 3272 1645 3428 
Q 1925 3584 2291 3584 
Q 2894 3584 3203 3211 
Q 3513 2838 3513 2113 
z
" transform="scale(0.015625)"/>
        <path id="DejaVuSans-64" d="M 2906 2969 
L 2906 4863 
L 3481 4863 
L 3481 0 
L 2906 0 
L 2906 525 
Q 2725 213 2448 61 
Q 2172 -91 1784 -91 
Q 1150 -91 751 415 
Q 353 922 353 1747 
Q 353 2572 751 3078 
Q 1150 3584 1784 3584 
Q 2172 3584 2448 3432 
Q 2725 3281 2906 2969 
z
M 947 1747 
Q 947 1113 1208 752 
Q 1469 391 1925 391 
Q 2381 391 2643 752 
Q 2906 1113 2906 1747 
Q 2906 2381 2643 2742 
Q 2381 3103 1925 3103 
Q 1469 3103 1208 2742 
Q 947 2381 947 1747 
z
" transform="scale(0.015625)"/>
        <path id="DejaVuSans-20" transform="scale(0.015625)"/>
        <path id="DejaVuSans-30" d="M 2034 4250 
Q 1547 4250 1301 3770 
Q 1056 3291 1056 2328 
Q 1056 1369 1301 889 
Q 1547 409 2034 409 
Q 2525 409 2770 889 
Q 3016 1369 3016 2328 
Q 3016 3291 2770 3770 
Q 2525 4250 2034 4250 
z
M 2034 4750 
Q 2819 4750 3233 4129 
Q 3647 3509 3647 2328 
Q 3647 1150 3233 529 
Q 2819 -91 2034 -91 
Q 1250 -91 836 529 
Q 422 1150 422 2328 
Q 422 3509 836 4129 
Q 1250 4750 2034 4750 
z
" transform="scale(0.015625)"/>
       </defs>
       <use xlink:href="#DejaVuSans-52"/>
       <use xlink:href="#DejaVuSans-6f" transform="translate(64.982422 0)"/>
       <use xlink:href="#DejaVuSans-75" transform="translate(126.164062 0)"/>
       <use xlink:href="#DejaVuSans-6e" transform="translate(189.542969 0)"/>
       <use xlink:href="#DejaVuSans-64" transform="translate(252.921875 0)"/>
       <use xlink:href="#DejaVuSans-20" transform="translate(316.398438 0)"/>
       <use xlink:href="#DejaVuSans-30" transform="translate(348.185547 0)"/>
       <use xlink:href="#DejaVuSans-30" transform="translate(411.808594 0)"/>
      </g>
     </g>
    </g>
    <g id="xtick_2">
     <g id="line2d_2">
      <g>
       <use xlink:href="#ma843bd8731" x="150.377104" y="362.655662" style="stroke: #000000; stroke-width: 0.8"/>
      </g>
     </g>
     <g id="text_2">
      <!-- Round 01 -->
      <g transform="translate(108.270221 416.44536) rotate(-45) scale(0.12 -0.12)">
       <defs>
        <path id="DejaVuSans-31" d="M 794 531 
L 1825 531 
L 1825 4091 
L 703 3866 
L 703 4441 
L 1819 4666 
L 2450 4666 
L 2450 531 
L 3481 531 
L 3481 0 
L 794 0 
L 794 531 
z
" transform="scale(0.015625)"/>
       </defs>
       <use xlink:href="#DejaVuSans-52"/>
       <use xlink:href="#DejaVuSans-6f" transform="translate(64.982422 0)"/>
       <use xlink:href="#DejaVuSans-75" transform="translate(126.164062 0)"/>
       <use xlink:href="#DejaVuSans-6e" transform="translate(189.542969 0)"/>
       <use xlink:href="#DejaVuSans-64" transform="translate(252.921875 0)"/>
       <use xlink:href="#DejaVuSans-20" transform="translate(316.398438 0)"/>
       <use xlink:href="#DejaVuSans-30" transform="translate(348.185547 0)"/>
       <use xlink:href="#DejaVuSans-31" transform="translate(411.808594 0)"/>
      </g>
     </g>
    </g>
    <g id="xtick_3">
     <g id="line2d_3">
      <g>
       <use xlink:href="#ma843bd8731" x="188.622896" y="362.655662" style="stroke: #000000; stroke-width: 0.8"/>
      </g>
     </g>
     <g id="text_3">
      <!-- Round 02 -->
      <g transform="translate(146.516013 416.44536) rotate(-45) scale(0.12 -0.12)">
       <defs>
        <path id="DejaVuSans-32" d="M 1228 531 
L 3431 531 
L 3431 0 
L 469 0 
L 469 531 
Q 828 903 1448 1529 
Q 2069 2156 2228 2338 
Q 2531 2678 2651 2914 
Q 2772 3150 2772 3378 
Q 2772 3750 2511 3984 
Q 2250 4219 1831 4219 
Q 1534 4219 1204 4116 
Q 875 4013 500 3803 
L 500 4441 
Q 881 4594 1212 4672 
Q 1544 4750 1819 4750 
Q 2544 4750 2975 4387 
Q 3406 4025 3406 3419 
Q 3406 3131 3298 2873 
Q 3191 2616 2906 2266 
Q 2828 2175 2409 1742 
Q 1991 1309 1228 531 
z
" transform="scale(0.015625)"/>
       </defs>
       <use xlink:href="#DejaVuSans-52"/>
       <use xlink:href="#DejaVuSans-6f" transform="translate(64.982422 0)"/>
       <use xlink:href="#DejaVuSans-75" transform="translate(126.164062 0)"/>
       <use xlink:href="#DejaVuSans-6e" transform="translate(189.542969 0)"/>
       <use xlink:href="#DejaVuSans-64" transform="translate(252.921875 0)"/>
       <use xlink:href="#DejaVuSans-20" transform="translate(316.398438 0)"/>
       <use xlink:href="#DejaVuSans-30" transform="translate(348.185547 0)"/>
       <use xlink:href="#DejaVuSans-32" transform="translate(411.808594 0)"/>
      </g>
     </g>
    </g>
    <g id="xtick_4">
     <g id="line2d_4">
      <g>
       <use xlink:href="#ma843bd8731" x="226.868687" y="362.655662" style="stroke: #000000; stroke-width: 0.8"/>
      </g>
     </g>
     <g id="text_4">
      <!-- Round 06 -->
      <g transform="translate(184.761804 416.44536) rotate(-45) scale(0.12 -0.12)">
       <defs>
        <path id="DejaVuSans-36" d="M 2113 2584 
Q 1688 2584 1439 2293 
Q 1191 2003 1191 1497 
Q 1191 994 1439 701 
Q 1688 409 2113 409 
Q 2538 409 2786 701 
Q 3034 994 3034 1497 
Q 3034 2003 2786 2293 
Q 2538 2584 2113 2584 
z
M 3366 4563 
L 3366 3988 
Q 3128 4100 2886 4159 
Q 2644 4219 2406 4219 
Q 1781 4219 1451 3797 
Q 1122 3375 1075 2522 
Q 1259 2794 1537 2939 
Q 1816 3084 2150 3084 
Q 2853 3084 3261 2657 
Q 3669 2231 3669 1497 
Q 3669 778 3244 343 
Q 2819 -91 2113 -91 
Q 1303 -91 875 529 
Q 447 1150 447 2328 
Q 447 3434 972 4092 
Q 1497 4750 2381 4750 
Q 2619 4750 2861 4703 
Q 3103 4656 3366 4563 
z
" transform="scale(0.015625)"/>
       </defs>
       <use xlink:href="#DejaVuSans-52"/>
       <use xlink:href="#DejaVuSans-6f" transform="translate(64.982422 0)"/>
       <use xlink:href="#DejaVuSans-75" transform="translate(126.164062 0)"/>
       <use xlink:href="#DejaVuSans-6e" transform="translate(189.542969 0)"/>
       <use xlink:href="#DejaVuSans-64" transform="translate(252.921875 0)"/>
       <use xlink:href="#DejaVuSans-20" transform="translate(316.398438 0)"/>
       <use xlink:href="#DejaVuSans-30" transform="translate(348.185547 0)"/>
       <use xlink:href="#DejaVuSans-36" transform="translate(411.808594 0)"/>
      </g>
     </g>
    </g>
    <g id="xtick_5">
     <g id="line2d_5">
      <g>
       <use xlink:href="#ma843bd8731" x="265.114478" y="362.655662" style="stroke: #000000; stroke-width: 0.8"/>
      </g>
     </g>
     <g id="text_5">
      <!-- Round 08 -->
      <g transform="translate(223.007595 416.44536) rotate(-45) scale(0.12 -0.12)">
       <defs>
        <path id="DejaVuSans-38" d="M 2034 2216 
Q 1584 2216 1326 1975 
Q 1069 1734 1069 1313 
Q 1069 891 1326 650 
Q 1584 409 2034 409 
Q 2484 409 2743 651 
Q 3003 894 3003 1313 
Q 3003 1734 2745 1975 
Q 2488 2216 2034 2216 
z
M 1403 2484 
Q 997 2584 770 2862 
Q 544 3141 544 3541 
Q 544 4100 942 4425 
Q 1341 4750 2034 4750 
Q 2731 4750 3128 4425 
Q 3525 4100 3525 3541 
Q 3525 3141 3298 2862 
Q 3072 2584 2669 2484 
Q 3125 2378 3379 2068 
Q 3634 1759 3634 1313 
Q 3634 634 3220 271 
Q 2806 -91 2034 -91 
Q 1263 -91 848 271 
Q 434 634 434 1313 
Q 434 1759 690 2068 
Q 947 2378 1403 2484 
z
M 1172 3481 
Q 1172 3119 1398 2916 
Q 1625 2713 2034 2713 
Q 2441 2713 2670 2916 
Q 2900 3119 2900 3481 
Q 2900 3844 2670 4047 
Q 2441 4250 2034 4250 
Q 1625 4250 1398 4047 
Q 1172 3844 1172 3481 
z
" transform="scale(0.015625)"/>
       </defs>
       <use xlink:href="#DejaVuSans-52"/>
       <use xlink:href="#DejaVuSans-6f" transform="translate(64.982422 0)"/>
       <use xlink:href="#DejaVuSans-75" transform="translate(126.164062 0)"/>
       <use xlink:href="#DejaVuSans-6e" transform="translate(189.542969 0)"/>
       <use xlink:href="#DejaVuSans-64" transform="translate(252.921875 0)"/>
       <use xlink:href="#DejaVuSans-20" transform="translate(316.398438 0)"/>
       <use xlink:href="#DejaVuSans-30" transform="translate(348.185547 0)"/>
       <use xlink:href="#DejaVuSans-38" transform="translate(411.808594 0)"/>
      </g>
     </g>
    </g>
    <g id="xtick_6">
     <g id="line2d_6">
      <g>
       <use xlink:href="#ma843bd8731" x="303.360269" y="362.655662" style="stroke: #000000; stroke-width: 0.8"/>
      </g>
     </g>
     <g id="text_6">
      <!-- Round 09 -->
      <g transform="translate(261.253386 416.44536) rotate(-45) scale(0.12 -0.12)">
       <defs>
        <path id="DejaVuSans-39" d="M 703 97 
L 703 672 
Q 941 559 1184 500 
Q 1428 441 1663 441 
Q 2288 441 2617 861 
Q 2947 1281 2994 2138 
Q 2813 1869 2534 1725 
Q 2256 1581 1919 1581 
Q 1219 1581 811 2004 
Q 403 2428 403 3163 
Q 403 3881 828 4315 
Q 1253 4750 1959 4750 
Q 2769 4750 3195 4129 
Q 3622 3509 3622 2328 
Q 3622 1225 3098 567 
Q 2575 -91 1691 -91 
Q 1453 -91 1209 -44 
Q 966 3 703 97 
z
M 1959 2075 
Q 2384 2075 2632 2365 
Q 2881 2656 2881 3163 
Q 2881 3666 2632 3958 
Q 2384 4250 1959 4250 
Q 1534 4250 1286 3958 
Q 1038 3666 1038 3163 
Q 1038 2656 1286 2365 
Q 1534 2075 1959 2075 
z
" transform="scale(0.015625)"/>
       </defs>
       <use xlink:href="#DejaVuSans-52"/>
       <use xlink:href="#DejaVuSans-6f" transform="translate(64.982422 0)"/>
       <use xlink:href="#DejaVuSans-75" transform="translate(126.164062 0)"/>
       <use xlink:href="#DejaVuSans-6e" transform="translate(189.542969 0)"/>
       <use xlink:href="#DejaVuSans-64" transform="translate(252.921875 0)"/>
       <use xlink:href="#DejaVuSans-20" transform="translate(316.398438 0)"/>
       <use xlink:href="#DejaVuSans-30" transform="translate(348.185547 0)"/>
       <use xlink:href="#DejaVuSans-39" transform="translate(411.808594 0)"/>
      </g>
     </g>
    </g>
    <g id="xtick_7">
     <g id="line2d_7">
      <g>
       <use xlink:href="#ma843bd8731" x="341.606061" y="362.655662" style="stroke: #000000; stroke-width: 0.8"/>
      </g>
     </g>
     <g id="text_7">
      <!-- Round 12 -->
      <g transform="translate(299.499178 416.44536) rotate(-45) scale(0.12 -0.12)">
       <use xlink:href="#DejaVuSans-52"/>
       <use xlink:href="#DejaVuSans-6f" transform="translate(64.982422 0)"/>
       <use xlink:href="#DejaVuSans-75" transform="translate(126.164062 0)"/>
       <use xlink:href="#DejaVuSans-6e" transform="translate(189.542969 0)"/>
       <use xlink:href="#DejaVuSans-64" transform="translate(252.921875 0)"/>
       <use xlink:href="#DejaVuSans-20" transform="translate(316.398438 0)"/>
       <use xlink:href="#DejaVuSans-31" transform="translate(348.185547 0)"/>
       <use xlink:href="#DejaVuSans-32" transform="translate(411.808594 0)"/>
      </g>
     </g>
    </g>
    <g id="xtick_8">
     <g id="line2d_8">
      <g>
       <use xlink:href="#ma843bd8731" x="379.851852" y="362.655662" style="stroke: #000000; stroke-width: 0.8"/>
      </g>
     </g>
     <g id="text_8">
      <!-- Round 13 -->
      <g transform="translate(337.744969 416.44536) rotate(-45) scale(0.12 -0.12)">
       <defs>
        <path id="DejaVuSans-33" d="M 2597 2516 
Q 3050 2419 3304 2112 
Q 3559 1806 3559 1356 
Q 3559 666 3084 287 
Q 2609 -91 1734 -91 
Q 1441 -91 1130 -33 
Q 819 25 488 141 
L 488 750 
Q 750 597 1062 519 
Q 1375 441 1716 441 
Q 2309 441 2620 675 
Q 2931 909 2931 1356 
Q 2931 1769 2642 2001 
Q 2353 2234 1838 2234 
L 1294 2234 
L 1294 2753 
L 1863 2753 
Q 2328 2753 2575 2939 
Q 2822 3125 2822 3475 
Q 2822 3834 2567 4026 
Q 2313 4219 1838 4219 
Q 1578 4219 1281 4162 
Q 984 4106 628 3988 
L 628 4550 
Q 988 4650 1302 4700 
Q 1616 4750 1894 4750 
Q 2613 4750 3031 4423 
Q 3450 4097 3450 3541 
Q 3450 3153 3228 2886 
Q 3006 2619 2597 2516 
z
" transform="scale(0.015625)"/>
       </defs>
       <use xlink:href="#DejaVuSans-52"/>
       <use xlink:href="#DejaVuSans-6f" transform="translate(64.982422 0)"/>
       <use xlink:href="#DejaVuSans-75" transform="translate(126.164062 0)"/>
       <use xlink:href="#DejaVuSans-6e" transform="translate(189.542969 0)"/>
       <use xlink:href="#DejaVuSans-64" transform="translate(252.921875 0)"/>
       <use xlink:href="#DejaVuSans-20" transform="translate(316.398438 0)"/>
       <use xlink:href="#DejaVuSans-31" transform="translate(348.185547 0)"/>
       <use xlink:href="#DejaVuSans-33" transform="translate(411.808594 0)"/>
      </g>
     </g>
    </g>
    <g id="xtick_9">
     <g id="line2d_9">
      <g>
       <use xlink:href="#ma843bd8731" x="418.097643" y="362.655662" style="stroke: #000000; stroke-width: 0.8"/>
      </g>
     </g>
     <g id="text_9">
      <!-- Round 14 -->
      <g transform="translate(375.99076 416.44536) rotate(-45) scale(0.12 -0.12)">
       <defs>
        <path id="DejaVuSans-34" d="M 2419 4116 
L 825 1625 
L 2419 1625 
L 2419 4116 
z
M 2253 4666 
L 3047 4666 
L 3047 1625 
L 3713 1625 
L 3713 1100 
L 3047 1100 
L 3047 0 
L 2419 0 
L 2419 1100 
L 313 1100 
L 313 1709 
L 2253 4666 
z
" transform="scale(0.015625)"/>
       </defs>
       <use xlink:href="#DejaVuSans-52"/>
       <use xlink:href="#DejaVuSans-6f" transform="translate(64.982422 0)"/>
       <use xlink:href="#DejaVuSans-75" transform="translate(126.164062 0)"/>
       <use xlink:href="#DejaVuSans-6e" transform="translate(189.542969 0)"/>
       <use xlink:href="#DejaVuSans-64" transform="translate(252.921875 0)"/>
       <use xlink:href="#DejaVuSans-20" transform="translate(316.398438 0)"/>
       <use xlink:href="#DejaVuSans-31" transform="translate(348.185547 0)"/>
       <use xlink:href="#DejaVuSans-34" transform="translate(411.808594 0)"/>
      </g>
     </g>
    </g>
    <g id="xtick_10">
     <g id="line2d_10">
      <g>
       <use xlink:href="#ma843bd8731" x="456.343434" y="362.655662" style="stroke: #000000; stroke-width: 0.8"/>
      </g>
     </g>
     <g id="text_10">
      <!-- Round 15 -->
      <g transform="translate(414.236551 416.44536) rotate(-45) scale(0.12 -0.12)">
       <defs>
        <path id="DejaVuSans-35" d="M 691 4666 
L 3169 4666 
L 3169 4134 
L 1269 4134 
L 1269 2991 
Q 1406 3038 1543 3061 
Q 1681 3084 1819 3084 
Q 2600 3084 3056 2656 
Q 3513 2228 3513 1497 
Q 3513 744 3044 326 
Q 2575 -91 1722 -91 
Q 1428 -91 1123 -41 
Q 819 9 494 109 
L 494 744 
Q 775 591 1075 516 
Q 1375 441 1709 441 
Q 2250 441 2565 725 
Q 2881 1009 2881 1497 
Q 2881 1984 2565 2268 
Q 2250 2553 1709 2553 
Q 1456 2553 1204 2497 
Q 953 2441 691 2322 
L 691 4666 
z
" transform="scale(0.015625)"/>
       </defs>
       <use xlink:href="#DejaVuSans-52"/>
       <use xlink:href="#DejaVuSans-6f" transform="translate(64.982422 0)"/>
       <use xlink:href="#DejaVuSans-75" transform="translate(126.164062 0)"/>
       <use xlink:href="#DejaVuSans-6e" transform="translate(189.542969 0)"/>
       <use xlink:href="#DejaVuSans-64" transform="translate(252.921875 0)"/>
       <use xlink:href="#DejaVuSans-20" transform="translate(316.398438 0)"/>
       <use xlink:href="#DejaVuSans-31" transform="translate(348.185547 0)"/>
       <use xlink:href="#DejaVuSans-35" transform="translate(411.808594 0)"/>
      </g>
     </g>
    </g>
    <g id="xtick_11">
     <g id="line2d_11">
      <g>
       <use xlink:href="#ma843bd8731" x="494.589226" y="362.655662" style="stroke: #000000; stroke-width: 0.8"/>
      </g>
     </g>
     <g id="text_11">
      <!-- Round 16 -->
      <g transform="translate(452.482343 416.44536) rotate(-45) scale(0.12 -0.12)">
       <use xlink:href="#DejaVuSans-52"/>
       <use xlink:href="#DejaVuSans-6f" transform="translate(64.982422 0)"/>
       <use xlink:href="#DejaVuSans-75" transform="translate(126.164062 0)"/>
       <use xlink:href="#DejaVuSans-6e" transform="translate(189.542969 0)"/>
       <use xlink:href="#DejaVuSans-64" transform="translate(252.921875 0)"/>
       <use xlink:href="#DejaVuSans-20" transform="translate(316.398438 0)"/>
       <use xlink:href="#DejaVuSans-31" transform="translate(348.185547 0)"/>
       <use xlink:href="#DejaVuSans-36" transform="translate(411.808594 0)"/>
      </g>
     </g>
    </g>
    <g id="xtick_12">
     <g id="line2d_12">
      <g>
       <use xlink:href="#ma843bd8731" x="532.835017" y="362.655662" style="stroke: #000000; stroke-width: 0.8"/>
      </g>
     </g>
     <g id="text_12">
      <!-- Round 17 -->
      <g transform="translate(490.728134 416.44536) rotate(-45) scale(0.12 -0.12)">
       <defs>
        <path id="DejaVuSans-37" d="M 525 4666 
L 3525 4666 
L 3525 4397 
L 1831 0 
L 1172 0 
L 2766 4134 
L 525 4134 
L 525 4666 
z
" transform="scale(0.015625)"/>
       </defs>
       <use xlink:href="#DejaVuSans-52"/>
       <use xlink:href="#DejaVuSans-6f" transform="translate(64.982422 0)"/>
       <use xlink:href="#DejaVuSans-75" transform="translate(126.164062 0)"/>
       <use xlink:href="#DejaVuSans-6e" transform="translate(189.542969 0)"/>
       <use xlink:href="#DejaVuSans-64" transform="translate(252.921875 0)"/>
       <use xlink:href="#DejaVuSans-20" transform="translate(316.398438 0)"/>
       <use xlink:href="#DejaVuSans-31" transform="translate(348.185547 0)"/>
       <use xlink:href="#DejaVuSans-37" transform="translate(411.808594 0)"/>
      </g>
     </g>
    </g>
    <g id="xtick_13">
     <g id="line2d_13">
      <g>
       <use xlink:href="#ma843bd8731" x="571.080808" y="362.655662" style="stroke: #000000; stroke-width: 0.8"/>
      </g>
     </g>
     <g id="text_13">
      <!-- Round 18 -->
      <g transform="translate(528.973925 416.44536) rotate(-45) scale(0.12 -0.12)">
       <use xlink:href="#DejaVuSans-52"/>
       <use xlink:href="#DejaVuSans-6f" transform="translate(64.982422 0)"/>
       <use xlink:href="#DejaVuSans-75" transform="translate(126.164062 0)"/>
       <use xlink:href="#DejaVuSans-6e" transform="translate(189.542969 0)"/>
       <use xlink:href="#DejaVuSans-64" transform="translate(252.921875 0)"/>
       <use xlink:href="#DejaVuSans-20" transform="translate(316.398438 0)"/>
       <use xlink:href="#DejaVuSans-31" transform="translate(348.185547 0)"/>
       <use xlink:href="#DejaVuSans-38" transform="translate(411.808594 0)"/>
      </g>
     </g>
    </g>
    <g id="xtick_14">
     <g id="line2d_14">
      <g>
       <use xlink:href="#ma843bd8731" x="609.326599" y="362.655662" style="stroke: #000000; stroke-width: 0.8"/>
      </g>
     </g>
     <g id="text_14">
      <!-- Round 19 -->
      <g transform="translate(567.219716 416.44536) rotate(-45) scale(0.12 -0.12)">
       <use xlink:href="#DejaVuSans-52"/>
       <use xlink:href="#DejaVuSans-6f" transform="translate(64.982422 0)"/>
       <use xlink:href="#DejaVuSans-75" transform="translate(126.164062 0)"/>
       <use xlink:href="#DejaVuSans-6e" transform="translate(189.542969 0)"/>
       <use xlink:href="#DejaVuSans-64" transform="translate(252.921875 0)"/>
       <use xlink:href="#DejaVuSans-20" transform="translate(316.398438 0)"/>
       <use xlink:href="#DejaVuSans-31" transform="translate(348.185547 0)"/>
       <use xlink:href="#DejaVuSans-39" transform="translate(411.808594 0)"/>
      </g>
     </g>
    </g>
    <g id="xtick_15">
     <g id="line2d_15">
      <g>
       <use xlink:href="#ma843bd8731" x="647.572391" y="362.655662" style="stroke: #000000; stroke-width: 0.8"/>
      </g>
     </g>
     <g id="text_15">
      <!-- Round 20 -->
      <g transform="translate(605.465508 416.44536) rotate(-45) scale(0.12 -0.12)">
       <use xlink:href="#DejaVuSans-52"/>
       <use xlink:href="#DejaVuSans-6f" transform="translate(64.982422 0)"/>
       <use xlink:href="#DejaVuSans-75" transform="translate(126.164062 0)"/>
       <use xlink:href="#DejaVuSans-6e" transform="translate(189.542969 0)"/>
       <use xlink:href="#DejaVuSans-64" transform="translate(252.921875 0)"/>
       <use xlink:href="#DejaVuSans-20" transform="translate(316.398438 0)"/>
       <use xlink:href="#DejaVuSans-32" transform="translate(348.185547 0)"/>
       <use xlink:href="#DejaVuSans-30" transform="translate(411.808594 0)"/>
      </g>
     </g>
    </g>
    <g id="xtick_16">
     <g id="line2d_16">
      <g>
       <use xlink:href="#ma843bd8731" x="685.818182" y="362.655662" style="stroke: #000000; stroke-width: 0.8"/>
      </g>
     </g>
     <g id="text_16">
      <!-- Round 21 -->
      <g transform="translate(643.711299 416.44536) rotate(-45) scale(0.12 -0.12)">
       <use xlink:href="#DejaVuSans-52"/>
       <use xlink:href="#DejaVuSans-6f" transform="translate(64.982422 0)"/>
       <use xlink:href="#DejaVuSans-75" transform="translate(126.164062 0)"/>
       <use xlink:href="#DejaVuSans-6e" transform="translate(189.542969 0)"/>
       <use xlink:href="#DejaVuSans-64" transform="translate(252.921875 0)"/>
       <use xlink:href="#DejaVuSans-20" transform="translate(316.398438 0)"/>
       <use xlink:href="#DejaVuSans-32" transform="translate(348.185547 0)"/>
       <use xlink:href="#DejaVuSans-31" transform="translate(411.808594 0)"/>
      </g>
     </g>
    </g>
    <g id="xtick_17">
     <g id="line2d_17">
      <g>
       <use xlink:href="#ma843bd8731" x="724.063973" y="362.655662" style="stroke: #000000; stroke-width: 0.8"/>
      </g>
     </g>
     <g id="text_17">
      <!-- Round 22 -->
      <g transform="translate(681.95709 416.44536) rotate(-45) scale(0.12 -0.12)">
       <use xlink:href="#DejaVuSans-52"/>
       <use xlink:href="#DejaVuSans-6f" transform="translate(64.982422 0)"/>
       <use xlink:href="#DejaVuSans-75" transform="translate(126.164062 0)"/>
       <use xlink:href="#DejaVuSans-6e" transform="translate(189.542969 0)"/>
       <use xlink:href="#DejaVuSans-64" transform="translate(252.921875 0)"/>
       <use xlink:href="#DejaVuSans-20" transform="translate(316.398438 0)"/>
       <use xlink:href="#DejaVuSans-32" transform="translate(348.185547 0)"/>
       <use xlink:href="#DejaVuSans-32" transform="translate(411.808594 0)"/>
      </g>
     </g>
    </g>
    <g id="xtick_18">
     <g id="line2d_18">
      <g>
       <use xlink:href="#ma843bd8731" x="762.309764" y="362.655662" style="stroke: #000000; stroke-width: 0.8"/>
      </g>
     </g>
     <g id="text_18">
      <!-- Round 23 -->
      <g transform="translate(720.202881 416.44536) rotate(-45) scale(0.12 -0.12)">
       <use xlink:href="#DejaVuSans-52"/>
       <use xlink:href="#DejaVuSans-6f" transform="translate(64.982422 0)"/>
       <use xlink:href="#DejaVuSans-75" transform="translate(126.164062 0)"/>
       <use xlink:href="#DejaVuSans-6e" transform="translate(189.542969 0)"/>
       <use xlink:href="#DejaVuSans-64" transform="translate(252.921875 0)"/>
       <use xlink:href="#DejaVuSans-20" transform="translate(316.398438 0)"/>
       <use xlink:href="#DejaVuSans-32" transform="translate(348.185547 0)"/>
       <use xlink:href="#DejaVuSans-33" transform="translate(411.808594 0)"/>
      </g>
     </g>
    </g>
    <g id="xtick_19">
     <g id="line2d_19">
      <g>
       <use xlink:href="#ma843bd8731" x="800.555556" y="362.655662" style="stroke: #000000; stroke-width: 0.8"/>
      </g>
     </g>
     <g id="text_19">
      <!-- RYOS_I -->
      <g transform="translate(769.671783 404.836434) rotate(-45) scale(0.12 -0.12)">
       <defs>
        <path id="DejaVuSans-59" d="M -13 4666 
L 666 4666 
L 1959 2747 
L 3244 4666 
L 3922 4666 
L 2272 2222 
L 2272 0 
L 1638 0 
L 1638 2222 
L -13 4666 
z
" transform="scale(0.015625)"/>
        <path id="DejaVuSans-4f" d="M 2522 4238 
Q 1834 4238 1429 3725 
Q 1025 3213 1025 2328 
Q 1025 1447 1429 934 
Q 1834 422 2522 422 
Q 3209 422 3611 934 
Q 4013 1447 4013 2328 
Q 4013 3213 3611 3725 
Q 3209 4238 2522 4238 
z
M 2522 4750 
Q 3503 4750 4090 4092 
Q 4678 3434 4678 2328 
Q 4678 1225 4090 567 
Q 3503 -91 2522 -91 
Q 1538 -91 948 565 
Q 359 1222 359 2328 
Q 359 3434 948 4092 
Q 1538 4750 2522 4750 
z
" transform="scale(0.015625)"/>
        <path id="DejaVuSans-53" d="M 3425 4513 
L 3425 3897 
Q 3066 4069 2747 4153 
Q 2428 4238 2131 4238 
Q 1616 4238 1336 4038 
Q 1056 3838 1056 3469 
Q 1056 3159 1242 3001 
Q 1428 2844 1947 2747 
L 2328 2669 
Q 3034 2534 3370 2195 
Q 3706 1856 3706 1288 
Q 3706 609 3251 259 
Q 2797 -91 1919 -91 
Q 1588 -91 1214 -16 
Q 841 59 441 206 
L 441 856 
Q 825 641 1194 531 
Q 1563 422 1919 422 
Q 2459 422 2753 634 
Q 3047 847 3047 1241 
Q 3047 1584 2836 1778 
Q 2625 1972 2144 2069 
L 1759 2144 
Q 1053 2284 737 2584 
Q 422 2884 422 3419 
Q 422 4038 858 4394 
Q 1294 4750 2059 4750 
Q 2388 4750 2728 4690 
Q 3069 4631 3425 4513 
z
" transform="scale(0.015625)"/>
        <path id="DejaVuSans-5f" d="M 3263 -1063 
L 3263 -1509 
L -63 -1509 
L -63 -1063 
L 3263 -1063 
z
" transform="scale(0.015625)"/>
        <path id="DejaVuSans-49" d="M 628 4666 
L 1259 4666 
L 1259 0 
L 628 0 
L 628 4666 
z
" transform="scale(0.015625)"/>
       </defs>
       <use xlink:href="#DejaVuSans-52"/>
       <use xlink:href="#DejaVuSans-59" transform="translate(63.107422 0)"/>
       <use xlink:href="#DejaVuSans-4f" transform="translate(118.691406 0)"/>
       <use xlink:href="#DejaVuSans-53" transform="translate(197.402344 0)"/>
       <use xlink:href="#DejaVuSans-5f" transform="translate(260.878906 0)"/>
       <use xlink:href="#DejaVuSans-49" transform="translate(310.878906 0)"/>
      </g>
     </g>
    </g>
   </g>
   <g id="matplotlib.axis_2">
    <g id="ytick_1">
     <g id="line2d_20">
      <path d="M 55.91 362.655662 
L 851.04 362.655662 
" clip-path="url(#p0ac1cb9052)" style="fill: none; stroke-dasharray: 2.96,1.28; stroke-dashoffset: 0; stroke: #b0b0b0; stroke-opacity: 0.7; stroke-width: 0.8"/>
     </g>
     <g id="line2d_21">
      <defs>
       <path id="m09eb4c4280" d="M 0 0 
L -3.5 0 
" style="stroke: #000000; stroke-width: 0.8"/>
      </defs>
      <g>
       <use xlink:href="#m09eb4c4280" x="55.91" y="362.655662" style="stroke: #000000; stroke-width: 0.8"/>
      </g>
     </g>
     <g id="text_20">
      <!-- 0.0 -->
      <g transform="translate(29.82625 367.214725) scale(0.12 -0.12)">
       <defs>
        <path id="DejaVuSans-2e" d="M 684 794 
L 1344 794 
L 1344 0 
L 684 0 
L 684 794 
z
" transform="scale(0.015625)"/>
       </defs>
       <use xlink:href="#DejaVuSans-30"/>
       <use xlink:href="#DejaVuSans-2e" transform="translate(63.623047 0)"/>
       <use xlink:href="#DejaVuSans-30" transform="translate(95.410156 0)"/>
      </g>
     </g>
    </g>
    <g id="ytick_2">
     <g id="line2d_22">
      <path d="M 55.91 320.927999 
L 851.04 320.927999 
" clip-path="url(#p0ac1cb9052)" style="fill: none; stroke-dasharray: 2.96,1.28; stroke-dashoffset: 0; stroke: #b0b0b0; stroke-opacity: 0.7; stroke-width: 0.8"/>
     </g>
     <g id="line2d_23">
      <g>
       <use xlink:href="#m09eb4c4280" x="55.91" y="320.927999" style="stroke: #000000; stroke-width: 0.8"/>
      </g>
     </g>
     <g id="text_21">
      <!-- 0.1 -->
      <g transform="translate(29.82625 325.487061) scale(0.12 -0.12)">
       <use xlink:href="#DejaVuSans-30"/>
       <use xlink:href="#DejaVuSans-2e" transform="translate(63.623047 0)"/>
       <use xlink:href="#DejaVuSans-31" transform="translate(95.410156 0)"/>
      </g>
     </g>
    </g>
    <g id="ytick_3">
     <g id="line2d_24">
      <path d="M 55.91 279.200335 
L 851.04 279.200335 
" clip-path="url(#p0ac1cb9052)" style="fill: none; stroke-dasharray: 2.96,1.28; stroke-dashoffset: 0; stroke: #b0b0b0; stroke-opacity: 0.7; stroke-width: 0.8"/>
     </g>
     <g id="line2d_25">
      <g>
       <use xlink:href="#m09eb4c4280" x="55.91" y="279.200335" style="stroke: #000000; stroke-width: 0.8"/>
      </g>
     </g>
     <g id="text_22">
      <!-- 0.2 -->
      <g transform="translate(29.82625 283.759398) scale(0.12 -0.12)">
       <use xlink:href="#DejaVuSans-30"/>
       <use xlink:href="#DejaVuSans-2e" transform="translate(63.623047 0)"/>
       <use xlink:href="#DejaVuSans-32" transform="translate(95.410156 0)"/>
      </g>
     </g>
    </g>
    <g id="ytick_4">
     <g id="line2d_26">
      <path d="M 55.91 237.472672 
L 851.04 237.472672 
" clip-path="url(#p0ac1cb9052)" style="fill: none; stroke-dasharray: 2.96,1.28; stroke-dashoffset: 0; stroke: #b0b0b0; stroke-opacity: 0.7; stroke-width: 0.8"/>
     </g>
     <g id="line2d_27">
      <g>
       <use xlink:href="#m09eb4c4280" x="55.91" y="237.472672" style="stroke: #000000; stroke-width: 0.8"/>
      </g>
     </g>
     <g id="text_23">
      <!-- 0.3 -->
      <g transform="translate(29.82625 242.031734) scale(0.12 -0.12)">
       <use xlink:href="#DejaVuSans-30"/>
       <use xlink:href="#DejaVuSans-2e" transform="translate(63.623047 0)"/>
       <use xlink:href="#DejaVuSans-33" transform="translate(95.410156 0)"/>
      </g>
     </g>
    </g>
    <g id="ytick_5">
     <g id="line2d_28">
      <path d="M 55.91 195.745008 
L 851.04 195.745008 
" clip-path="url(#p0ac1cb9052)" style="fill: none; stroke-dasharray: 2.96,1.28; stroke-dashoffset: 0; stroke: #b0b0b0; stroke-opacity: 0.7; stroke-width: 0.8"/>
     </g>
     <g id="line2d_29">
      <g>
       <use xlink:href="#m09eb4c4280" x="55.91" y="195.745008" style="stroke: #000000; stroke-width: 0.8"/>
      </g>
     </g>
     <g id="text_24">
      <!-- 0.4 -->
      <g transform="translate(29.82625 200.304071) scale(0.12 -0.12)">
       <use xlink:href="#DejaVuSans-30"/>
       <use xlink:href="#DejaVuSans-2e" transform="translate(63.623047 0)"/>
       <use xlink:href="#DejaVuSans-34" transform="translate(95.410156 0)"/>
      </g>
     </g>
    </g>
    <g id="ytick_6">
     <g id="line2d_30">
      <path d="M 55.91 154.017345 
L 851.04 154.017345 
" clip-path="url(#p0ac1cb9052)" style="fill: none; stroke-dasharray: 2.96,1.28; stroke-dashoffset: 0; stroke: #b0b0b0; stroke-opacity: 0.7; stroke-width: 0.8"/>
     </g>
     <g id="line2d_31">
      <g>
       <use xlink:href="#m09eb4c4280" x="55.91" y="154.017345" style="stroke: #000000; stroke-width: 0.8"/>
      </g>
     </g>
     <g id="text_25">
      <!-- 0.5 -->
      <g transform="translate(29.82625 158.576407) scale(0.12 -0.12)">
       <use xlink:href="#DejaVuSans-30"/>
       <use xlink:href="#DejaVuSans-2e" transform="translate(63.623047 0)"/>
       <use xlink:href="#DejaVuSans-35" transform="translate(95.410156 0)"/>
      </g>
     </g>
    </g>
    <g id="ytick_7">
     <g id="line2d_32">
      <path d="M 55.91 112.289681 
L 851.04 112.289681 
" clip-path="url(#p0ac1cb9052)" style="fill: none; stroke-dasharray: 2.96,1.28; stroke-dashoffset: 0; stroke: #b0b0b0; stroke-opacity: 0.7; stroke-width: 0.8"/>
     </g>
     <g id="line2d_33">
      <g>
       <use xlink:href="#m09eb4c4280" x="55.91" y="112.289681" style="stroke: #000000; stroke-width: 0.8"/>
      </g>
     </g>
     <g id="text_26">
      <!-- 0.6 -->
      <g transform="translate(29.82625 116.848744) scale(0.12 -0.12)">
       <use xlink:href="#DejaVuSans-30"/>
       <use xlink:href="#DejaVuSans-2e" transform="translate(63.623047 0)"/>
       <use xlink:href="#DejaVuSans-36" transform="translate(95.410156 0)"/>
      </g>
     </g>
    </g>
    <g id="ytick_8">
     <g id="line2d_34">
      <path d="M 55.91 70.562018 
L 851.04 70.562018 
" clip-path="url(#p0ac1cb9052)" style="fill: none; stroke-dasharray: 2.96,1.28; stroke-dashoffset: 0; stroke: #b0b0b0; stroke-opacity: 0.7; stroke-width: 0.8"/>
     </g>
     <g id="line2d_35">
      <g>
       <use xlink:href="#m09eb4c4280" x="55.91" y="70.562018" style="stroke: #000000; stroke-width: 0.8"/>
      </g>
     </g>
     <g id="text_27">
      <!-- 0.7 -->
      <g transform="translate(29.82625 75.12108) scale(0.12 -0.12)">
       <use xlink:href="#DejaVuSans-30"/>
       <use xlink:href="#DejaVuSans-2e" transform="translate(63.623047 0)"/>
       <use xlink:href="#DejaVuSans-37" transform="translate(95.410156 0)"/>
      </g>
     </g>
    </g>
    <g id="ytick_9">
     <g id="line2d_36">
      <path d="M 55.91 28.834354 
L 851.04 28.834354 
" clip-path="url(#p0ac1cb9052)" style="fill: none; stroke-dasharray: 2.96,1.28; stroke-dashoffset: 0; stroke: #b0b0b0; stroke-opacity: 0.7; stroke-width: 0.8"/>
     </g>
     <g id="line2d_37">
      <g>
       <use xlink:href="#m09eb4c4280" x="55.91" y="28.834354" style="stroke: #000000; stroke-width: 0.8"/>
      </g>
     </g>
     <g id="text_28">
      <!-- 0.8 -->
      <g transform="translate(29.82625 33.393417) scale(0.12 -0.12)">
       <use xlink:href="#DejaVuSans-30"/>
       <use xlink:href="#DejaVuSans-2e" transform="translate(63.623047 0)"/>
       <use xlink:href="#DejaVuSans-38" transform="translate(95.410156 0)"/>
      </g>
     </g>
    </g>
    <g id="text_29">
     <!-- PCC -->
     <g transform="translate(23.330625 199.805019) rotate(-90) scale(0.12 -0.12)">
      <defs>
       <path id="DejaVuSans-50" d="M 1259 4147 
L 1259 2394 
L 2053 2394 
Q 2494 2394 2734 2622 
Q 2975 2850 2975 3272 
Q 2975 3691 2734 3919 
Q 2494 4147 2053 4147 
L 1259 4147 
z
M 628 4666 
L 2053 4666 
Q 2838 4666 3239 4311 
Q 3641 3956 3641 3272 
Q 3641 2581 3239 2228 
Q 2838 1875 2053 1875 
L 1259 1875 
L 1259 0 
L 628 0 
L 628 4666 
z
" transform="scale(0.015625)"/>
       <path id="DejaVuSans-43" d="M 4122 4306 
L 4122 3641 
Q 3803 3938 3442 4084 
Q 3081 4231 2675 4231 
Q 1875 4231 1450 3742 
Q 1025 3253 1025 2328 
Q 1025 1406 1450 917 
Q 1875 428 2675 428 
Q 3081 428 3442 575 
Q 3803 722 4122 1019 
L 4122 359 
Q 3791 134 3420 21 
Q 3050 -91 2638 -91 
Q 1578 -91 968 557 
Q 359 1206 359 2328 
Q 359 3453 968 4101 
Q 1578 4750 2638 4750 
Q 3056 4750 3426 4639 
Q 3797 4528 4122 4306 
z
" transform="scale(0.015625)"/>
      </defs>
      <use xlink:href="#DejaVuSans-50"/>
      <use xlink:href="#DejaVuSans-43" transform="translate(60.302734 0)"/>
      <use xlink:href="#DejaVuSans-43" transform="translate(130.126953 0)"/>
     </g>
    </g>
   </g>
   <g id="line2d_38">
    <path d="M 55.91 362.655662 
L 851.04 362.655662 
" clip-path="url(#p0ac1cb9052)" style="fill: none; stroke: #000000; stroke-width: 0.8; stroke-linecap: square"/>
   </g>
   <g id="patch_117">
    <path d="M 55.91 362.655662 
L 55.91 12.96 
" style="fill: none; stroke: #000000; stroke-width: 0.8; stroke-linejoin: miter; stroke-linecap: square"/>
   </g>
   <g id="patch_118">
    <path d="M 851.04 362.655662 
L 851.04 12.96 
" style="fill: none; stroke: #000000; stroke-width: 0.8; stroke-linejoin: miter; stroke-linecap: square"/>
   </g>
   <g id="patch_119">
    <path d="M 55.91 362.655662 
L 851.04 362.655662 
" style="fill: none; stroke: #000000; stroke-width: 0.8; stroke-linejoin: miter; stroke-linecap: square"/>
   </g>
   <g id="patch_120">
    <path d="M 55.91 12.96 
L 851.04 12.96 
" style="fill: none; stroke: #000000; stroke-width: 0.8; stroke-linejoin: miter; stroke-linecap: square"/>
   </g>
   <g id="legend_1">
    <g id="patch_121">
     <path d="M 376.805312 128.2425 
L 530.144688 128.2425 
Q 532.544688 128.2425 532.544688 125.8425 
L 532.544688 21.36 
Q 532.544688 18.96 530.144688 18.96 
L 376.805312 18.96 
Q 374.405312 18.96 374.405312 21.36 
L 374.405312 125.8425 
Q 374.405312 128.2425 376.805312 128.2425 
z
" style="fill: #ffffff; opacity: 0.8; stroke: #cccccc; stroke-linejoin: miter"/>
    </g>
    <g id="patch_122">
     <path d="M 379.205312 32.878125 
L 403.205312 32.878125 
L 403.205312 24.478125 
L 379.205312 24.478125 
z
" style="fill: #b7d4ea"/>
    </g>
    <g id="text_30">
     <!-- CONTRAfold 2 -->
     <g transform="translate(412.805313 32.878125) scale(0.12 -0.12)">
      <defs>
       <path id="DejaVuSans-4e" d="M 628 4666 
L 1478 4666 
L 3547 763 
L 3547 4666 
L 4159 4666 
L 4159 0 
L 3309 0 
L 1241 3903 
L 1241 0 
L 628 0 
L 628 4666 
z
" transform="scale(0.015625)"/>
       <path id="DejaVuSans-54" d="M -19 4666 
L 3928 4666 
L 3928 4134 
L 2272 4134 
L 2272 0 
L 1638 0 
L 1638 4134 
L -19 4134 
L -19 4666 
z
" transform="scale(0.015625)"/>
       <path id="DejaVuSans-41" d="M 2188 4044 
L 1331 1722 
L 3047 1722 
L 2188 4044 
z
M 1831 4666 
L 2547 4666 
L 4325 0 
L 3669 0 
L 3244 1197 
L 1141 1197 
L 716 0 
L 50 0 
L 1831 4666 
z
" transform="scale(0.015625)"/>
       <path id="DejaVuSans-66" d="M 2375 4863 
L 2375 4384 
L 1825 4384 
Q 1516 4384 1395 4259 
Q 1275 4134 1275 3809 
L 1275 3500 
L 2222 3500 
L 2222 3053 
L 1275 3053 
L 1275 0 
L 697 0 
L 697 3053 
L 147 3053 
L 147 3500 
L 697 3500 
L 697 3744 
Q 697 4328 969 4595 
Q 1241 4863 1831 4863 
L 2375 4863 
z
" transform="scale(0.015625)"/>
       <path id="DejaVuSans-6c" d="M 603 4863 
L 1178 4863 
L 1178 0 
L 603 0 
L 603 4863 
z
" transform="scale(0.015625)"/>
      </defs>
      <use xlink:href="#DejaVuSans-43"/>
      <use xlink:href="#DejaVuSans-4f" transform="translate(69.824219 0)"/>
      <use xlink:href="#DejaVuSans-4e" transform="translate(148.535156 0)"/>
      <use xlink:href="#DejaVuSans-54" transform="translate(223.339844 0)"/>
      <use xlink:href="#DejaVuSans-52" transform="translate(284.423828 0)"/>
      <use xlink:href="#DejaVuSans-41" transform="translate(349.90625 0)"/>
      <use xlink:href="#DejaVuSans-66" transform="translate(414.689453 0)"/>
      <use xlink:href="#DejaVuSans-6f" transform="translate(449.894531 0)"/>
      <use xlink:href="#DejaVuSans-6c" transform="translate(511.076172 0)"/>
      <use xlink:href="#DejaVuSans-64" transform="translate(538.859375 0)"/>
      <use xlink:href="#DejaVuSans-20" transform="translate(602.335938 0)"/>
      <use xlink:href="#DejaVuSans-32" transform="translate(634.123047 0)"/>
     </g>
    </g>
    <g id="patch_123">
     <path d="M 379.205312 50.491875 
L 403.205312 50.491875 
L 403.205312 42.091875 
L 379.205312 42.091875 
z
" style="fill: #a9a9a9"/>
    </g>
    <g id="text_31">
     <!-- EternaFold -->
     <g transform="translate(412.805313 50.491875) scale(0.12 -0.12)">
      <defs>
       <path id="DejaVuSans-45" d="M 628 4666 
L 3578 4666 
L 3578 4134 
L 1259 4134 
L 1259 2753 
L 3481 2753 
L 3481 2222 
L 1259 2222 
L 1259 531 
L 3634 531 
L 3634 0 
L 628 0 
L 628 4666 
z
" transform="scale(0.015625)"/>
       <path id="DejaVuSans-74" d="M 1172 4494 
L 1172 3500 
L 2356 3500 
L 2356 3053 
L 1172 3053 
L 1172 1153 
Q 1172 725 1289 603 
Q 1406 481 1766 481 
L 2356 481 
L 2356 0 
L 1766 0 
Q 1100 0 847 248 
Q 594 497 594 1153 
L 594 3053 
L 172 3053 
L 172 3500 
L 594 3500 
L 594 4494 
L 1172 4494 
z
" transform="scale(0.015625)"/>
       <path id="DejaVuSans-65" d="M 3597 1894 
L 3597 1613 
L 953 1613 
Q 991 1019 1311 708 
Q 1631 397 2203 397 
Q 2534 397 2845 478 
Q 3156 559 3463 722 
L 3463 178 
Q 3153 47 2828 -22 
Q 2503 -91 2169 -91 
Q 1331 -91 842 396 
Q 353 884 353 1716 
Q 353 2575 817 3079 
Q 1281 3584 2069 3584 
Q 2775 3584 3186 3129 
Q 3597 2675 3597 1894 
z
M 3022 2063 
Q 3016 2534 2758 2815 
Q 2500 3097 2075 3097 
Q 1594 3097 1305 2825 
Q 1016 2553 972 2059 
L 3022 2063 
z
" transform="scale(0.015625)"/>
       <path id="DejaVuSans-72" d="M 2631 2963 
Q 2534 3019 2420 3045 
Q 2306 3072 2169 3072 
Q 1681 3072 1420 2755 
Q 1159 2438 1159 1844 
L 1159 0 
L 581 0 
L 581 3500 
L 1159 3500 
L 1159 2956 
Q 1341 3275 1631 3429 
Q 1922 3584 2338 3584 
Q 2397 3584 2469 3576 
Q 2541 3569 2628 3553 
L 2631 2963 
z
" transform="scale(0.015625)"/>
       <path id="DejaVuSans-61" d="M 2194 1759 
Q 1497 1759 1228 1600 
Q 959 1441 959 1056 
Q 959 750 1161 570 
Q 1363 391 1709 391 
Q 2188 391 2477 730 
Q 2766 1069 2766 1631 
L 2766 1759 
L 2194 1759 
z
M 3341 1997 
L 3341 0 
L 2766 0 
L 2766 531 
Q 2569 213 2275 61 
Q 1981 -91 1556 -91 
Q 1019 -91 701 211 
Q 384 513 384 1019 
Q 384 1609 779 1909 
Q 1175 2209 1959 2209 
L 2766 2209 
L 2766 2266 
Q 2766 2663 2505 2880 
Q 2244 3097 1772 3097 
Q 1472 3097 1187 3025 
Q 903 2953 641 2809 
L 641 3341 
Q 956 3463 1253 3523 
Q 1550 3584 1831 3584 
Q 2591 3584 2966 3190 
Q 3341 2797 3341 1997 
z
" transform="scale(0.015625)"/>
       <path id="DejaVuSans-46" d="M 628 4666 
L 3309 4666 
L 3309 4134 
L 1259 4134 
L 1259 2759 
L 3109 2759 
L 3109 2228 
L 1259 2228 
L 1259 0 
L 628 0 
L 628 4666 
z
" transform="scale(0.015625)"/>
      </defs>
      <use xlink:href="#DejaVuSans-45"/>
      <use xlink:href="#DejaVuSans-74" transform="translate(63.183594 0)"/>
      <use xlink:href="#DejaVuSans-65" transform="translate(102.392578 0)"/>
      <use xlink:href="#DejaVuSans-72" transform="translate(163.916016 0)"/>
      <use xlink:href="#DejaVuSans-6e" transform="translate(203.279297 0)"/>
      <use xlink:href="#DejaVuSans-61" transform="translate(266.658203 0)"/>
      <use xlink:href="#DejaVuSans-46" transform="translate(327.9375 0)"/>
      <use xlink:href="#DejaVuSans-6f" transform="translate(381.832031 0)"/>
      <use xlink:href="#DejaVuSans-6c" transform="translate(443.013672 0)"/>
      <use xlink:href="#DejaVuSans-64" transform="translate(470.796875 0)"/>
     </g>
    </g>
    <g id="patch_124">
     <path d="M 379.205312 68.105625 
L 403.205312 68.105625 
L 403.205312 59.705625 
L 379.205312 59.705625 
z
" style="fill: #519ccc"/>
    </g>
    <g id="text_32">
     <!-- Nupack -->
     <g transform="translate(412.805313 68.105625) scale(0.12 -0.12)">
      <defs>
       <path id="DejaVuSans-70" d="M 1159 525 
L 1159 -1331 
L 581 -1331 
L 581 3500 
L 1159 3500 
L 1159 2969 
Q 1341 3281 1617 3432 
Q 1894 3584 2278 3584 
Q 2916 3584 3314 3078 
Q 3713 2572 3713 1747 
Q 3713 922 3314 415 
Q 2916 -91 2278 -91 
Q 1894 -91 1617 61 
Q 1341 213 1159 525 
z
M 3116 1747 
Q 3116 2381 2855 2742 
Q 2594 3103 2138 3103 
Q 1681 3103 1420 2742 
Q 1159 2381 1159 1747 
Q 1159 1113 1420 752 
Q 1681 391 2138 391 
Q 2594 391 2855 752 
Q 3116 1113 3116 1747 
z
" transform="scale(0.015625)"/>
       <path id="DejaVuSans-63" d="M 3122 3366 
L 3122 2828 
Q 2878 2963 2633 3030 
Q 2388 3097 2138 3097 
Q 1578 3097 1268 2742 
Q 959 2388 959 1747 
Q 959 1106 1268 751 
Q 1578 397 2138 397 
Q 2388 397 2633 464 
Q 2878 531 3122 666 
L 3122 134 
Q 2881 22 2623 -34 
Q 2366 -91 2075 -91 
Q 1284 -91 818 406 
Q 353 903 353 1747 
Q 353 2603 823 3093 
Q 1294 3584 2113 3584 
Q 2378 3584 2631 3529 
Q 2884 3475 3122 3366 
z
" transform="scale(0.015625)"/>
       <path id="DejaVuSans-6b" d="M 581 4863 
L 1159 4863 
L 1159 1991 
L 2875 3500 
L 3609 3500 
L 1753 1863 
L 3688 0 
L 2938 0 
L 1159 1709 
L 1159 0 
L 581 0 
L 581 4863 
z
" transform="scale(0.015625)"/>
      </defs>
      <use xlink:href="#DejaVuSans-4e"/>
      <use xlink:href="#DejaVuSans-75" transform="translate(74.804688 0)"/>
      <use xlink:href="#DejaVuSans-70" transform="translate(138.183594 0)"/>
      <use xlink:href="#DejaVuSans-61" transform="translate(201.660156 0)"/>
      <use xlink:href="#DejaVuSans-63" transform="translate(262.939453 0)"/>
      <use xlink:href="#DejaVuSans-6b" transform="translate(317.919922 0)"/>
     </g>
    </g>
    <g id="patch_125">
     <path d="M 379.205312 85.719375 
L 403.205312 85.719375 
L 403.205312 77.319375 
L 379.205312 77.319375 
z
" style="fill: #5a5a5a"/>
    </g>
    <g id="text_33">
     <!-- RibonanzaNet 2A3 -->
     <g transform="translate(412.805313 85.719375) scale(0.12 -0.12)">
      <defs>
       <path id="DejaVuSans-69" d="M 603 3500 
L 1178 3500 
L 1178 0 
L 603 0 
L 603 3500 
z
M 603 4863 
L 1178 4863 
L 1178 4134 
L 603 4134 
L 603 4863 
z
" transform="scale(0.015625)"/>
       <path id="DejaVuSans-62" d="M 3116 1747 
Q 3116 2381 2855 2742 
Q 2594 3103 2138 3103 
Q 1681 3103 1420 2742 
Q 1159 2381 1159 1747 
Q 1159 1113 1420 752 
Q 1681 391 2138 391 
Q 2594 391 2855 752 
Q 3116 1113 3116 1747 
z
M 1159 2969 
Q 1341 3281 1617 3432 
Q 1894 3584 2278 3584 
Q 2916 3584 3314 3078 
Q 3713 2572 3713 1747 
Q 3713 922 3314 415 
Q 2916 -91 2278 -91 
Q 1894 -91 1617 61 
Q 1341 213 1159 525 
L 1159 0 
L 581 0 
L 581 4863 
L 1159 4863 
L 1159 2969 
z
" transform="scale(0.015625)"/>
       <path id="DejaVuSans-7a" d="M 353 3500 
L 3084 3500 
L 3084 2975 
L 922 459 
L 3084 459 
L 3084 0 
L 275 0 
L 275 525 
L 2438 3041 
L 353 3041 
L 353 3500 
z
" transform="scale(0.015625)"/>
      </defs>
      <use xlink:href="#DejaVuSans-52"/>
      <use xlink:href="#DejaVuSans-69" transform="translate(69.482422 0)"/>
      <use xlink:href="#DejaVuSans-62" transform="translate(97.265625 0)"/>
      <use xlink:href="#DejaVuSans-6f" transform="translate(160.742188 0)"/>
      <use xlink:href="#DejaVuSans-6e" transform="translate(221.923828 0)"/>
      <use xlink:href="#DejaVuSans-61" transform="translate(285.302734 0)"/>
      <use xlink:href="#DejaVuSans-6e" transform="translate(346.582031 0)"/>
      <use xlink:href="#DejaVuSans-7a" transform="translate(409.960938 0)"/>
      <use xlink:href="#DejaVuSans-61" transform="translate(462.451172 0)"/>
      <use xlink:href="#DejaVuSans-4e" transform="translate(523.730469 0)"/>
      <use xlink:href="#DejaVuSans-65" transform="translate(598.535156 0)"/>
      <use xlink:href="#DejaVuSans-74" transform="translate(660.058594 0)"/>
      <use xlink:href="#DejaVuSans-20" transform="translate(699.267578 0)"/>
      <use xlink:href="#DejaVuSans-32" transform="translate(731.054688 0)"/>
      <use xlink:href="#DejaVuSans-41" transform="translate(794.677734 0)"/>
      <use xlink:href="#DejaVuSans-33" transform="translate(863.085938 0)"/>
     </g>
    </g>
    <g id="patch_126">
     <path d="M 379.205312 103.333125 
L 403.205312 103.333125 
L 403.205312 94.933125 
L 379.205312 94.933125 
z
" style="fill: #0a549e"/>
    </g>
    <g id="text_34">
     <!-- RibonanzaNet DMS -->
     <g transform="translate(412.805313 103.333125) scale(0.12 -0.12)">
      <defs>
       <path id="DejaVuSans-44" d="M 1259 4147 
L 1259 519 
L 2022 519 
Q 2988 519 3436 956 
Q 3884 1394 3884 2338 
Q 3884 3275 3436 3711 
Q 2988 4147 2022 4147 
L 1259 4147 
z
M 628 4666 
L 1925 4666 
Q 3281 4666 3915 4102 
Q 4550 3538 4550 2338 
Q 4550 1131 3912 565 
Q 3275 0 1925 0 
L 628 0 
L 628 4666 
z
" transform="scale(0.015625)"/>
       <path id="DejaVuSans-4d" d="M 628 4666 
L 1569 4666 
L 2759 1491 
L 3956 4666 
L 4897 4666 
L 4897 0 
L 4281 0 
L 4281 4097 
L 3078 897 
L 2444 897 
L 1241 4097 
L 1241 0 
L 628 0 
L 628 4666 
z
" transform="scale(0.015625)"/>
      </defs>
      <use xlink:href="#DejaVuSans-52"/>
      <use xlink:href="#DejaVuSans-69" transform="translate(69.482422 0)"/>
      <use xlink:href="#DejaVuSans-62" transform="translate(97.265625 0)"/>
      <use xlink:href="#DejaVuSans-6f" transform="translate(160.742188 0)"/>
      <use xlink:href="#DejaVuSans-6e" transform="translate(221.923828 0)"/>
      <use xlink:href="#DejaVuSans-61" transform="translate(285.302734 0)"/>
      <use xlink:href="#DejaVuSans-6e" transform="translate(346.582031 0)"/>
      <use xlink:href="#DejaVuSans-7a" transform="translate(409.960938 0)"/>
      <use xlink:href="#DejaVuSans-61" transform="translate(462.451172 0)"/>
      <use xlink:href="#DejaVuSans-4e" transform="translate(523.730469 0)"/>
      <use xlink:href="#DejaVuSans-65" transform="translate(598.535156 0)"/>
      <use xlink:href="#DejaVuSans-74" transform="translate(660.058594 0)"/>
      <use xlink:href="#DejaVuSans-20" transform="translate(699.267578 0)"/>
      <use xlink:href="#DejaVuSans-44" transform="translate(731.054688 0)"/>
      <use xlink:href="#DejaVuSans-4d" transform="translate(808.056641 0)"/>
      <use xlink:href="#DejaVuSans-53" transform="translate(894.335938 0)"/>
     </g>
    </g>
    <g id="patch_127">
     <path d="M 379.205312 120.946875 
L 403.205312 120.946875 
L 403.205312 112.546875 
L 379.205312 112.546875 
z
"/>
    </g>
    <g id="text_35">
     <!-- RibonanzaNet SS -->
     <g transform="translate(412.805313 120.946875) scale(0.12 -0.12)">
      <use xlink:href="#DejaVuSans-52"/>
      <use xlink:href="#DejaVuSans-69" transform="translate(69.482422 0)"/>
      <use xlink:href="#DejaVuSans-62" transform="translate(97.265625 0)"/>
      <use xlink:href="#DejaVuSans-6f" transform="translate(160.742188 0)"/>
      <use xlink:href="#DejaVuSans-6e" transform="translate(221.923828 0)"/>
      <use xlink:href="#DejaVuSans-61" transform="translate(285.302734 0)"/>
      <use xlink:href="#DejaVuSans-6e" transform="translate(346.582031 0)"/>
      <use xlink:href="#DejaVuSans-7a" transform="translate(409.960938 0)"/>
      <use xlink:href="#DejaVuSans-61" transform="translate(462.451172 0)"/>
      <use xlink:href="#DejaVuSans-4e" transform="translate(523.730469 0)"/>
      <use xlink:href="#DejaVuSans-65" transform="translate(598.535156 0)"/>
      <use xlink:href="#DejaVuSans-74" transform="translate(660.058594 0)"/>
      <use xlink:href="#DejaVuSans-20" transform="translate(699.267578 0)"/>
      <use xlink:href="#DejaVuSans-53" transform="translate(731.054688 0)"/>
      <use xlink:href="#DejaVuSans-53" transform="translate(794.53125 0)"/>
     </g>
    </g>
   </g>
  </g>
 </g>
 <defs>
  <clipPath id="p0ac1cb9052">
   <rect x="55.91" y="12.96" width="795.13" height="349.695662"/>
  </clipPath>
 </defs>
</svg>
